<svg id="visual" viewBox="0 0 960 540" width="960" height="540" xmlns="http://www.w3.org/2000/svg" xmlns:xlink="http://www.w3.org/1999/xlink" version="1.1"><rect x="0" y="0" width="960" height="540" fill="#001220"></rect><path d="M0 373L22.8 366C45.7 359 91.3 345 137 341.7C182.7 338.3 228.3 345.7 274 354.7C319.7 363.7 365.3 374.3 411.2 378.5C457 382.7 503 380.3 548.8 372.7C594.7 365 640.3 352 686 345.7C731.7 339.3 777.3 339.7 823 335.5C868.7 331.3 914.3 322.7 937.2 318.3L960 314L960 541L937.2 541C914.3 541 868.7 541 823 541C777.3 541 731.7 541 686 541C640.3 541 594.7 541 548.8 541C503 541 457 541 411.2 541C365.3 541 319.7 541 274 541C228.3 541 182.7 541 137 541C91.3 541 45.7 541 22.8 541L0 541Z" fill="#d5af48"></path><path d="M0 414L22.8 406.3C45.7 398.7 91.3 383.3 137 385.5C182.7 387.7 228.3 407.3 274 405.7C319.7 404 365.3 381 411.2 373.7C457 366.3 503 374.7 548.8 383.7C594.7 392.7 640.3 402.3 686 400.3C731.7 398.3 777.3 384.7 823 384.3C868.7 384 914.3 397 937.2 403.5L960 410L960 541L937.2 541C914.3 541 868.7 541 823 541C777.3 541 731.7 541 686 541C640.3 541 594.7 541 548.8 541C503 541 457 541 411.2 541C365.3 541 319.7 541 274 541C228.3 541 182.7 541 137 541C91.3 541 45.7 541 22.8 541L0 541Z" fill="#d4764d"></path><path d="M0 396L22.8 405.8C45.7 415.7 91.3 435.3 137 440.3C182.7 445.3 228.3 435.7 274 433.8C319.7 432 365.3 438 411.2 441.7C457 445.3 503 446.7 548.8 442.2C594.7 437.7 640.3 427.3 686 421.7C731.7 416 777.3 415 823 415.7C868.7 416.3 914.3 418.7 937.2 419.8L960 421L960 541L937.2 541C914.3 541 868.7 541 823 541C777.3 541 731.7 541 686 541C640.3 541 594.7 541 548.8 541C503 541 457 541 411.2 541C365.3 541 319.7 541 274 541C228.3 541 182.7 541 137 541C91.3 541 45.7 541 22.8 541L0 541Z" fill="#b24960"></path><path d="M0 477L22.8 473.5C45.7 470 91.3 463 137 461C182.7 459 228.3 462 274 466.7C319.7 471.3 365.3 477.7 411.2 472.5C457 467.3 503 450.7 548.8 446.5C594.7 442.3 640.3 450.7 686 459.5C731.7 468.3 777.3 477.7 823 477.2C868.7 476.7 914.3 466.3 937.2 461.2L960 456L960 541L937.2 541C914.3 541 868.7 541 823 541C777.3 541 731.7 541 686 541C640.3 541 594.7 541 548.8 541C503 541 457 541 411.2 541C365.3 541 319.7 541 274 541C228.3 541 182.7 541 137 541C91.3 541 45.7 541 22.8 541L0 541Z" fill="#743369"></path><path d="M0 476L22.8 476.5C45.7 477 91.3 478 137 480.5C182.7 483 228.3 487 274 488.8C319.7 490.7 365.3 490.3 411.2 490.5C457 490.7 503 491.3 548.8 495.5C594.7 499.7 640.3 507.3 686 504.8C731.7 502.3 777.3 489.7 823 489.8C868.7 490 914.3 503 937.2 509.5L960 516L960 541L937.2 541C914.3 541 868.7 541 823 541C777.3 541 731.7 541 686 541C640.3 541 594.7 541 548.8 541C503 541 457 541 411.2 541C365.3 541 319.7 541 274 541C228.3 541 182.7 541 137 541C91.3 541 45.7 541 22.8 541L0 541Z" fill="#20285c"></path></svg>