<svg id="visual" viewBox="0 0 1920 1080" width="1920" height="1080" xmlns="http://www.w3.org/2000/svg" xmlns:xlink="http://www.w3.org/1999/xlink" version="1.1"><rect x="0" y="0" width="1920" height="1080" fill="#071d2d"></rect><path d="M0 740L45.7 751.3C91.3 762.7 182.7 785.3 274.2 767.7C365.7 750 457.3 692 548.8 677.7C640.3 663.3 731.7 692.7 823 698.2C914.3 703.7 1005.7 685.3 1097 690C1188.3 694.7 1279.7 722.3 1371.2 720.3C1462.7 718.3 1554.3 686.7 1645.8 674C1737.3 661.3 1828.7 667.7 1874.3 670.8L1920 674L1920 1081L1874.3 1081C1828.7 1081 1737.3 1081 1645.8 1081C1554.3 1081 1462.7 1081 1371.2 1081C1279.7 1081 1188.3 1081 1097 1081C1005.7 1081 914.3 1081 823 1081C731.7 1081 640.3 1081 548.8 1081C457.3 1081 365.7 1081 274.2 1081C182.7 1081 91.3 1081 45.7 1081L0 1081Z" fill="#1f18fc"></path><path d="M0 772L45.7 764.5C91.3 757 182.7 742 274.2 742.3C365.7 742.7 457.3 758.3 548.8 768.2C640.3 778 731.7 782 823 795C914.3 808 1005.7 830 1097 831.5C1188.3 833 1279.7 814 1371.2 810.3C1462.7 806.7 1554.3 818.3 1645.8 827.7C1737.3 837 1828.7 844 1874.3 847.5L1920 851L1920 1081L1874.3 1081C1828.7 1081 1737.3 1081 1645.8 1081C1554.3 1081 1462.7 1081 1371.2 1081C1279.7 1081 1188.3 1081 1097 1081C1005.7 1081 914.3 1081 823 1081C731.7 1081 640.3 1081 548.8 1081C457.3 1081 365.7 1081 274.2 1081C182.7 1081 91.3 1081 45.7 1081L0 1081Z" fill="#8b35f8"></path><path d="M0 886L45.7 878C91.3 870 182.7 854 274.2 850C365.7 846 457.3 854 548.8 847C640.3 840 731.7 818 823 825.7C914.3 833.3 1005.7 870.7 1097 875C1188.3 879.3 1279.7 850.7 1371.2 838C1462.7 825.3 1554.3 828.7 1645.8 833.3C1737.3 838 1828.7 844 1874.3 847L1920 850L1920 1081L1874.3 1081C1828.7 1081 1737.3 1081 1645.8 1081C1554.3 1081 1462.7 1081 1371.2 1081C1279.7 1081 1188.3 1081 1097 1081C1005.7 1081 914.3 1081 823 1081C731.7 1081 640.3 1081 548.8 1081C457.3 1081 365.7 1081 274.2 1081C182.7 1081 91.3 1081 45.7 1081L0 1081Z" fill="#be58f6"></path><path d="M0 917L45.7 919.7C91.3 922.3 182.7 927.7 274.2 920.5C365.7 913.3 457.3 893.7 548.8 898.8C640.3 904 731.7 934 823 934.5C914.3 935 1005.7 906 1097 903.5C1188.3 901 1279.7 925 1371.2 937C1462.7 949 1554.3 949 1645.8 948.7C1737.3 948.3 1828.7 947.7 1874.3 947.3L1920 947L1920 1081L1874.3 1081C1828.7 1081 1737.3 1081 1645.8 1081C1554.3 1081 1462.7 1081 1371.2 1081C1279.7 1081 1188.3 1081 1097 1081C1005.7 1081 914.3 1081 823 1081C731.7 1081 640.3 1081 548.8 1081C457.3 1081 365.7 1081 274.2 1081C182.7 1081 91.3 1081 45.7 1081L0 1081Z" fill="#e37ff7"></path><path d="M0 998L45.7 993.5C91.3 989 182.7 980 274.2 971.8C365.7 963.7 457.3 956.3 548.8 963.8C640.3 971.3 731.7 993.7 823 1005C914.3 1016.3 1005.7 1016.7 1097 1009.8C1188.3 1003 1279.7 989 1371.2 984.2C1462.7 979.3 1554.3 983.7 1645.8 990.7C1737.3 997.7 1828.7 1007.3 1874.3 1012.2L1920 1017L1920 1081L1874.3 1081C1828.7 1081 1737.3 1081 1645.8 1081C1554.3 1081 1462.7 1081 1371.2 1081C1279.7 1081 1188.3 1081 1097 1081C1005.7 1081 914.3 1081 823 1081C731.7 1081 640.3 1081 548.8 1081C457.3 1081 365.7 1081 274.2 1081C182.7 1081 91.3 1081 45.7 1081L0 1081Z" fill="#ffa7fc"></path></svg>