<svg id="visual" viewBox="0 0 960 540" width="960" height="540" xmlns="http://www.w3.org/2000/svg" xmlns:xlink="http://www.w3.org/1999/xlink" version="1.1"><rect x="0" y="0" width="960" height="540" fill="#001220"></rect><path d="M0 447L22.8 442.3C45.7 437.7 91.3 428.3 137 426.8C182.7 425.3 228.3 431.7 274 431.8C319.7 432 365.3 426 411.2 423.3C457 420.7 503 421.3 548.8 427.5C594.7 433.7 640.3 445.3 686 445.2C731.7 445 777.3 433 823 424.5C868.7 416 914.3 411 937.2 408.5L960 406L960 541L937.2 541C914.3 541 868.7 541 823 541C777.3 541 731.7 541 686 541C640.3 541 594.7 541 548.8 541C503 541 457 541 411.2 541C365.3 541 319.7 541 274 541C228.3 541 182.7 541 137 541C91.3 541 45.7 541 22.8 541L0 541Z" fill="#1b1fff"></path><path d="M0 462L22.8 457.7C45.7 453.3 91.3 444.7 137 440.7C182.7 436.7 228.3 437.3 274 444.5C319.7 451.7 365.3 465.3 411.2 465.8C457 466.3 503 453.7 548.8 452.5C594.7 451.3 640.3 461.7 686 467.5C731.7 473.3 777.3 474.7 823 472.2C868.7 469.7 914.3 463.3 937.2 460.2L960 457L960 541L937.2 541C914.3 541 868.7 541 823 541C777.3 541 731.7 541 686 541C640.3 541 594.7 541 548.8 541C503 541 457 541 411.2 541C365.3 541 319.7 541 274 541C228.3 541 182.7 541 137 541C91.3 541 45.7 541 22.8 541L0 541Z" fill="#0064ff"></path><path d="M0 497L22.8 491.7C45.7 486.3 91.3 475.7 137 470.7C182.7 465.7 228.3 466.3 274 468C319.7 469.7 365.3 472.3 411.2 474.7C457 477 503 479 548.8 481.8C594.7 484.7 640.3 488.3 686 485.7C731.7 483 777.3 474 823 471.7C868.7 469.3 914.3 473.7 937.2 475.8L960 478L960 541L937.2 541C914.3 541 868.7 541 823 541C777.3 541 731.7 541 686 541C640.3 541 594.7 541 548.8 541C503 541 457 541 411.2 541C365.3 541 319.7 541 274 541C228.3 541 182.7 541 137 541C91.3 541 45.7 541 22.8 541L0 541Z" fill="#078fff"></path><path d="M0 520L22.8 518.5C45.7 517 91.3 514 137 512.8C182.7 511.7 228.3 512.3 274 511.8C319.7 511.3 365.3 509.7 411.2 507.7C457 505.7 503 503.3 548.8 502.7C594.7 502 640.3 503 686 504.5C731.7 506 777.3 508 823 510.7C868.7 513.3 914.3 516.7 937.2 518.3L960 520L960 541L937.2 541C914.3 541 868.7 541 823 541C777.3 541 731.7 541 686 541C640.3 541 594.7 541 548.8 541C503 541 457 541 411.2 541C365.3 541 319.7 541 274 541C228.3 541 182.7 541 137 541C91.3 541 45.7 541 22.8 541L0 541Z" fill="#54b2ff"></path></svg>